<mxfile host="app.diagrams.net" modified="2022-09-14T08:14:08.404Z" agent="5.0 (Windows NT 10.0; Win64; x64) AppleWebKit/537.36 (KHTML, like Gecko) Chrome/105.0.0.0 Safari/537.36" etag="gb24kNtuspC8LcnPDZqQ" version="20.3.0" type="github">
  <diagram id="qqZJLYUVXBb8gEKr5d2w" name="Page-1">
    <mxGraphModel dx="1038" dy="571" grid="1" gridSize="10" guides="1" tooltips="1" connect="1" arrows="1" fold="1" page="1" pageScale="1" pageWidth="827" pageHeight="1169" math="0" shadow="0">
      <root>
        <mxCell id="0" />
        <mxCell id="1" parent="0" />
        <mxCell id="fSudIF1FeVT2BbZzj0ri-78" value="" style="edgeStyle=orthogonalEdgeStyle;rounded=0;orthogonalLoop=1;jettySize=auto;html=1;" edge="1" parent="1" source="fSudIF1FeVT2BbZzj0ri-1" target="fSudIF1FeVT2BbZzj0ri-77">
          <mxGeometry relative="1" as="geometry" />
        </mxCell>
        <mxCell id="fSudIF1FeVT2BbZzj0ri-1" value="Start" style="rounded=1;whiteSpace=wrap;html=1;fontSize=30;" vertex="1" parent="1">
          <mxGeometry x="40" y="40" width="120" height="80" as="geometry" />
        </mxCell>
        <mxCell id="fSudIF1FeVT2BbZzj0ri-80" value="" style="edgeStyle=orthogonalEdgeStyle;rounded=0;orthogonalLoop=1;jettySize=auto;html=1;fontSize=30;" edge="1" parent="1" source="fSudIF1FeVT2BbZzj0ri-77" target="fSudIF1FeVT2BbZzj0ri-79">
          <mxGeometry relative="1" as="geometry" />
        </mxCell>
        <mxCell id="fSudIF1FeVT2BbZzj0ri-77" value="Enter Number As N" style="shape=parallelogram;perimeter=parallelogramPerimeter;whiteSpace=wrap;html=1;fixedSize=1;fontSize=30;" vertex="1" parent="1">
          <mxGeometry x="240" y="40" width="120" height="80" as="geometry" />
        </mxCell>
        <mxCell id="fSudIF1FeVT2BbZzj0ri-82" value="" style="edgeStyle=orthogonalEdgeStyle;rounded=0;orthogonalLoop=1;jettySize=auto;html=1;fontSize=30;" edge="1" parent="1" source="fSudIF1FeVT2BbZzj0ri-79" target="fSudIF1FeVT2BbZzj0ri-81">
          <mxGeometry relative="1" as="geometry" />
        </mxCell>
        <mxCell id="fSudIF1FeVT2BbZzj0ri-79" value="Number &amp;lt; 10" style="rhombus;whiteSpace=wrap;html=1;fontSize=30;" vertex="1" parent="1">
          <mxGeometry x="440" y="40" width="120" height="80" as="geometry" />
        </mxCell>
        <mxCell id="fSudIF1FeVT2BbZzj0ri-81" value="Error" style="whiteSpace=wrap;html=1;fontSize=30;" vertex="1" parent="1">
          <mxGeometry x="640" y="40" width="120" height="80" as="geometry" />
        </mxCell>
        <mxCell id="fSudIF1FeVT2BbZzj0ri-84" value="&lt;font style=&quot;font-size: 20px;&quot;&gt;No&lt;/font&gt;" style="text;html=1;align=center;verticalAlign=middle;resizable=0;points=[];autosize=1;strokeColor=none;fillColor=none;fontSize=30;" vertex="1" parent="1">
          <mxGeometry x="555" y="40" width="50" height="50" as="geometry" />
        </mxCell>
        <mxCell id="fSudIF1FeVT2BbZzj0ri-87" value="&lt;font style=&quot;font-size: 20px;&quot;&gt;Yes&lt;/font&gt;" style="text;html=1;align=center;verticalAlign=middle;resizable=0;points=[];autosize=1;strokeColor=none;fillColor=none;fontSize=30;" vertex="1" parent="1">
          <mxGeometry x="450" y="130" width="60" height="50" as="geometry" />
        </mxCell>
        <mxCell id="fSudIF1FeVT2BbZzj0ri-88" value="" style="endArrow=classic;html=1;rounded=0;fontSize=30;exitX=0.5;exitY=1;exitDx=0;exitDy=0;" edge="1" parent="1" source="fSudIF1FeVT2BbZzj0ri-79">
          <mxGeometry width="50" height="50" relative="1" as="geometry">
            <mxPoint x="540" y="270" as="sourcePoint" />
            <mxPoint x="500" y="200" as="targetPoint" />
          </mxGeometry>
        </mxCell>
        <mxCell id="fSudIF1FeVT2BbZzj0ri-93" value="" style="edgeStyle=orthogonalEdgeStyle;rounded=0;orthogonalLoop=1;jettySize=auto;html=1;fontSize=30;" edge="1" parent="1" source="fSudIF1FeVT2BbZzj0ri-90" target="fSudIF1FeVT2BbZzj0ri-92">
          <mxGeometry relative="1" as="geometry" />
        </mxCell>
        <mxCell id="fSudIF1FeVT2BbZzj0ri-90" value="Random Number As R" style="whiteSpace=wrap;html=1;fontSize=30;" vertex="1" parent="1">
          <mxGeometry x="440" y="200" width="120" height="80" as="geometry" />
        </mxCell>
        <mxCell id="fSudIF1FeVT2BbZzj0ri-95" value="" style="edgeStyle=orthogonalEdgeStyle;rounded=0;orthogonalLoop=1;jettySize=auto;html=1;fontSize=30;" edge="1" parent="1" source="fSudIF1FeVT2BbZzj0ri-92" target="fSudIF1FeVT2BbZzj0ri-94">
          <mxGeometry relative="1" as="geometry" />
        </mxCell>
        <mxCell id="fSudIF1FeVT2BbZzj0ri-104" value="" style="edgeStyle=orthogonalEdgeStyle;rounded=0;orthogonalLoop=1;jettySize=auto;html=1;fontSize=30;" edge="1" parent="1" source="fSudIF1FeVT2BbZzj0ri-92" target="fSudIF1FeVT2BbZzj0ri-103">
          <mxGeometry relative="1" as="geometry" />
        </mxCell>
        <mxCell id="fSudIF1FeVT2BbZzj0ri-92" value="N = R" style="rhombus;whiteSpace=wrap;html=1;fontSize=30;" vertex="1" parent="1">
          <mxGeometry x="240" y="200" width="120" height="80" as="geometry" />
        </mxCell>
        <mxCell id="fSudIF1FeVT2BbZzj0ri-99" value="" style="edgeStyle=orthogonalEdgeStyle;rounded=0;orthogonalLoop=1;jettySize=auto;html=1;fontSize=30;" edge="1" parent="1" source="fSudIF1FeVT2BbZzj0ri-94" target="fSudIF1FeVT2BbZzj0ri-98">
          <mxGeometry relative="1" as="geometry" />
        </mxCell>
        <mxCell id="fSudIF1FeVT2BbZzj0ri-94" value="Correct Number!" style="whiteSpace=wrap;html=1;fontSize=30;" vertex="1" parent="1">
          <mxGeometry x="240" y="360" width="120" height="80" as="geometry" />
        </mxCell>
        <mxCell id="fSudIF1FeVT2BbZzj0ri-97" value="&lt;font style=&quot;font-size: 20px;&quot;&gt;Yes&lt;/font&gt;" style="text;html=1;align=center;verticalAlign=middle;resizable=0;points=[];autosize=1;strokeColor=none;fillColor=none;fontSize=30;" vertex="1" parent="1">
          <mxGeometry x="290" y="280" width="60" height="50" as="geometry" />
        </mxCell>
        <mxCell id="fSudIF1FeVT2BbZzj0ri-98" value="End" style="rounded=1;whiteSpace=wrap;html=1;fontSize=30;" vertex="1" parent="1">
          <mxGeometry x="440" y="360" width="120" height="80" as="geometry" />
        </mxCell>
        <mxCell id="fSudIF1FeVT2BbZzj0ri-101" value="&lt;font style=&quot;font-size: 20px;&quot;&gt;No&lt;/font&gt;" style="text;html=1;align=center;verticalAlign=middle;resizable=0;points=[];autosize=1;strokeColor=none;fillColor=none;fontSize=30;" vertex="1" parent="1">
          <mxGeometry x="190" y="200" width="50" height="50" as="geometry" />
        </mxCell>
        <mxCell id="fSudIF1FeVT2BbZzj0ri-103" value="Bad Luck" style="whiteSpace=wrap;html=1;fontSize=30;" vertex="1" parent="1">
          <mxGeometry x="40" y="200" width="120" height="80" as="geometry" />
        </mxCell>
        <mxCell id="fSudIF1FeVT2BbZzj0ri-105" value="" style="endArrow=classic;html=1;rounded=0;fontSize=30;exitX=0.5;exitY=1;exitDx=0;exitDy=0;entryX=1;entryY=0.5;entryDx=0;entryDy=0;" edge="1" parent="1" source="fSudIF1FeVT2BbZzj0ri-81" target="fSudIF1FeVT2BbZzj0ri-98">
          <mxGeometry width="50" height="50" relative="1" as="geometry">
            <mxPoint x="690" y="250" as="sourcePoint" />
            <mxPoint x="740" y="200" as="targetPoint" />
            <Array as="points">
              <mxPoint x="700" y="400" />
            </Array>
          </mxGeometry>
        </mxCell>
        <mxCell id="fSudIF1FeVT2BbZzj0ri-108" value="" style="endArrow=classic;html=1;rounded=0;fontSize=30;entryX=0.5;entryY=1;entryDx=0;entryDy=0;" edge="1" parent="1" target="fSudIF1FeVT2BbZzj0ri-77">
          <mxGeometry width="50" height="50" relative="1" as="geometry">
            <mxPoint x="100" y="200" as="sourcePoint" />
            <mxPoint x="150" y="150" as="targetPoint" />
            <Array as="points">
              <mxPoint x="100" y="160" />
              <mxPoint x="300" y="160" />
            </Array>
          </mxGeometry>
        </mxCell>
      </root>
    </mxGraphModel>
  </diagram>
</mxfile>
